<svg xmlns="http://www.w3.org/2000/svg" style="display: none;">
  <symbol id="clock" viewBox="0 0 24 24" fill="none"  stroke-linecap="round" stroke-linejoin="round" class="feather feather-clock" >
    <circle cx="12" cy="12" r="10"></circle>
    <polyline points="12 6 12 12 16 14"></polyline>
  </symbol>
  <symbol id="circle" viewBox="0 0 24 24" fill="none" stroke-linecap="round" stroke-linejoin="round" class="feather feather-circle">
    <circle cx="12" cy="12" r="10"></circle>
  </symbol>
  <symbol id="send" viewBox="0 0 24 24" fill="none"  stroke-linecap="round" stroke-linejoin="round" class="feather feather-send">
    <line x1="22" y1="2" x2="11" y2="13"></line>
    <polygon points="22 2 15 22 11 13 2 9 22 2"></polygon>
  </symbol>
  <symbol id="moon" viewBox="0 0 24 24" fill="none"  stroke-linecap="round" stroke-linejoin="round" class="feather feather-moon">
    <path d="M21 12.79A9 9 0 1 1 11.21 3 7 7 0 0 0 21 12.79z"></path>
  </symbol>
  
  <!-- Plus Icon -->
  <symbol id="plus" viewBox="0 0 24 24" fill="none" stroke-linecap="round" stroke-linejoin="round" class="feather feather-plus">
    <line x1="12" y1="5" x2="12" y2="19"></line>
    <line x1="5" y1="12" x2="19" y2="12"></line>
  </symbol>

  <!-- Sun Icon -->
  <symbol id="sun" viewBox="0 0 24 24" fill="none" stroke="currentColor" stroke-width="2" stroke-linecap="round" stroke-linejoin="round" class="feather feather-sun">
    <circle cx="12" cy="12" r="5"></circle>
    <line x1="12" y1="1" x2="12" y2="3"></line>
    <line x1="12" y1="21" x2="12" y2="23"></line>
    <line x1="4.22" y1="4.22" x2="5.64" y2="5.64"></line>
    <line x1="18.36" y1="18.36" x2="19.78" y2="19.78"></line>
    <line x1="1" y1="12" x2="3" y2="12"></line>
    <line x1="21" y1="12" x2="23" y2="12"></line>
    <line x1="4.22" y1="19.78" x2="5.64" y2="18.36"></line>
    <line x1="18.36" y1="5.64" x2="19.78" y2="4.22"></line>
  </symbol>

  <!-- Trash Icon -->
  <symbol id="trash" viewBox="0 0 24 24" fill="none" stroke-linecap="round" stroke-linejoin="round" class="feather feather-trash">
    <polyline points="3 6 5 6 21 6"></polyline>
    <path d="M19 6v14a2 2 0 0 1-2 2H7a2 2 0 0 1-2-2V6m3 0V4a2 2 0 0 1 2-2h4a2 2 0 0 1 2 2v2"></path>
  </symbol>

  <!-- X Icon -->
  <symbol id="x" viewBox="0 0 24 24" fill="none" stroke-linecap="round" stroke-linejoin="round" class="feather feather-x">
    <line x1="18" y1="6" x2="6" y2="18"></line>
    <line x1="6" y1="6" x2="18" y2="18"></line>
  </symbol>

  <symbol id="circle-right" viewBox="0 0 24 24" fill="none" stroke-linecap="round" stroke-linejoin="round" class="feather feather-arrow-right-circle">
  <circle cx="12" cy="12" r="10"></circle>
  <polyline points="12 16 16 12 12 8"></polyline>
  <line x1="8" y1="12" x2="16" y2="12"></line>
  </symbol>

  <symbol id="circle-x" viewBox="0 0 24 24" fill="none" stroke-linecap="round" stroke-linejoin="round" class="feather feather-x-circle">
  <circle cx="12" cy="12" r="10"></circle>
  <line x1="15" y1="9" x2="9" y2="15"></line>
  <line x1="9" y1="9" x2="15" y2="15"></line>
  </symbol>

  <symbol id="flag" viewBox="0 0 24 24" fill="none"  stroke-linecap="round" stroke-linejoin="round" class="feather feather-flag">
  <path d="M4 15s1-1 4-1 5 2 8 2 4-1 4-1V3s-1 1-4 1-5-2-8-2-4 1-4 1z"></path>
  <line x1="4" y1="22" x2="4" y2="15"></line>
  </symbol>

  <symbol id="calendar" viewBox="0 0 24 24" fill="none" stroke-linecap="round" stroke-linejoin="round">
  <rect x="3" y="4" width="18" height="18" rx="2" ry="2"/>
  <line x1="16" y1="2" x2="16" y2="6"/><line x1="8" y1="2" x2="8" y2="6"/>
  <line x1="3" y1="10" x2="21" y2="10"/>
  </symbol>

  <symbol id="clock" viewBox="0 0 24 24" fill="none" stroke-linecap="round" stroke-linejoin="round">
    <circle cx="12" cy="12" r="10"/><polyline points="12 6 12 12 16 14"/>
  </symbol>

  <svg id="circle-tick" viewBox="0 0 24 24" fill="none" stroke-linecap="round" stroke-linejoin="round" class="feather feather-check-circle">
    <path d="M22 11.08V12a10 10 0 1 1-5.93-9.14"></path>
    <polyline points="22 4 12 14.01 9 11.01"></polyline>
  </svg>

  <svg id="tick-circle" fill="none" viewBox="0 0 24 24"  stroke-linecap="round" stroke-linejoin="round">
    <path d="M8.5 11.5 11 14l4-4m6 2a9 9 0 1 1-18 0 9 9 0 0 1 18 0Z"/>
  </svg>
</svg>
